# xmcd CD database file
#
# Track frame offsets:
#	150
#	17785
#	35345
#	51110
#	65853
#	84115
#	100115
#	116198
#	131204
#	147678
#
# Disc length: 2270 seconds
#
# Revision: 0
# Processed by: cddbd v1.5PL3 Copyright (c) Steve Scherf et al.
# Submitted via: CDex 1.40Release
#
DISCID=9108dc0a
DTITLE=Viva Brasil - Viva Brasil
DYEAR=1980
DGENRE=Rock
TTITLE0=Skindo-Le-Le
TTITLE1=Medley: Voce Abousou/Desabafo
TTITLE2=O Bode
TTITLE3=Ronco Da Cuica
TTITLE4=Turn To Yourself
TTITLE5=Menina Danada
TTITLE6=Iemanja
TTITLE7=Dancing The Baiao
TTITLE8=She
TTITLE9=Produto Nacional
EXTD=\n\n\n\n YEAR: 1980 ID3G: 17
EXTT0=
EXTT1=
EXTT2=
EXTT3=
EXTT4=
EXTT5=
EXTT6=
EXTT7=
EXTT8=
EXTT9=
PLAYORDER=
